<svg width="1920" height="1526" viewBox="0 0 1920 1526" fill="none" xmlns="http://www.w3.org/2000/svg">
<g clip-path="url(#clip0_290_39)">
<mask id="path-1-outside-1_290_39" maskUnits="userSpaceOnUse" x="559.5" y="-162" width="1449" height="1667" fill="black">
<rect fill="white" x="559.5" y="-162" width="1449" height="1667"/>
<path fill-rule="evenodd" clip-rule="evenodd" d="M1800.48 602.941C1800.48 629.284 1820.74 649.548 1847.08 649.548H1987.17C1998.21 649.548 2007.17 640.593 2007.17 629.548V466.911C2007.17 455.865 1998.21 446.911 1987.17 446.911H1847.08C1820.74 446.911 1800.48 426.647 1800.48 400.304V290.88C1800.48 264.538 1820.74 244.274 1847.08 244.274H1987.17C1998.21 244.274 2007.17 235.32 2007.17 224.274V61.637C2007.17 50.5913 1998.21 41.637 1987.17 41.637H1847.08C1820.74 41.637 1800.48 61.9006 1800.48 88.2434V197.667C1800.48 224.01 1780.21 244.274 1751.84 244.274H1642.42C1616.08 244.274 1593.79 264.538 1593.79 290.88V400.304C1593.79 426.647 1573.52 446.911 1547.18 446.911H1433.7C1407.36 446.911 1387.1 467.174 1387.1 493.517V852.141C1387.1 852.165 1387.12 852.185 1387.14 852.185V852.185C1387.17 852.185 1387.19 852.206 1387.18 852.231C1385.83 877.222 1366 896.089 1338.63 896.089H1229.2C1202.86 896.089 1180.57 916.353 1180.57 942.696V1052.12C1180.57 1078.46 1160.31 1098.73 1133.96 1098.73H1020.49C994.143 1098.73 973.879 1118.99 973.879 1145.33V1484C973.879 1495.05 982.834 1504 993.879 1504H1160.57C1171.61 1504 1180.57 1495.05 1180.57 1484V1145.33C1180.57 1118.99 1200.83 1098.73 1227.18 1098.73H1229.2H1338.63C1366.99 1098.73 1387.26 1118.99 1387.26 1145.33V1254.76C1387.26 1281.1 1407.52 1301.36 1433.86 1301.36H1573.95C1584.99 1301.36 1593.95 1292.41 1593.95 1281.36V1118.73C1593.95 1107.68 1584.99 1098.73 1573.95 1098.73H1433.86C1407.52 1098.73 1387.26 1078.46 1387.26 1052.12V942.696C1387.26 916.353 1407.52 896.089 1433.86 896.089H1573.95C1584.99 896.089 1593.95 887.135 1593.95 876.089V693.534C1593.95 693.489 1593.91 693.452 1593.87 693.452V693.452C1593.82 693.452 1593.79 693.416 1593.79 693.371V493.517C1593.79 467.174 1614.05 446.911 1640.39 446.911H1642.42H1751.84C1780.21 446.911 1800.48 467.174 1800.48 493.517V602.941ZM1180.48 490.769C1180.48 490.794 1180.5 490.815 1180.52 490.815V490.815C1180.55 490.815 1180.57 490.835 1180.57 490.859V849.483C1180.57 875.826 1160.31 896.089 1133.96 896.089H1034.5H1018C991 896.089 973.879 917.5 973.879 936.5V957V1052.12C973.879 1078.46 951.589 1098.73 925.246 1098.73H815.822C787.453 1098.73 767.19 1118.99 767.19 1145.33V1254.76C767.19 1281.1 746.926 1301.36 720.583 1301.36H580.5C569.454 1301.36 560.5 1292.41 560.5 1281.36V1118.73C560.5 1107.68 569.454 1098.73 580.5 1098.73H720.583C746.926 1098.73 767.19 1078.46 767.19 1052.12V942.696C767.19 916.353 746.926 896.089 720.583 896.089H580.5C569.454 896.089 560.5 887.135 560.5 876.089V713.452C560.5 702.407 569.454 693.452 580.5 693.452H720.583C746.926 693.452 767.19 713.716 767.19 740.059V849.483C767.19 875.826 787.453 896.089 815.822 896.089H925.246C951.589 896.089 971.853 875.826 971.853 849.483V847.457L973.717 519.336V466.911C973.717 455.865 982.672 446.911 993.717 446.911H1133.8C1160.14 446.911 1180.41 426.647 1180.41 400.304V290.88C1180.41 264.538 1160.14 244.274 1133.8 244.274H993.717C982.672 244.274 973.717 235.32 973.717 224.274V61.637C973.717 50.5913 982.672 41.637 993.717 41.637H1133.8C1160.14 41.637 1180.41 61.9006 1180.41 88.2434V197.667C1180.41 224.01 1200.67 244.274 1229.04 244.274H1338.46C1364.81 244.274 1385.07 224.01 1385.07 197.667V195.641L1386.98 -141.114C1387.05 -152.115 1395.98 -161 1406.98 -161H1573.79C1584.83 -161 1593.79 -152.046 1593.79 -141V197.667C1593.79 224.01 1573.52 244.274 1547.18 244.274H1433.7H1431.68C1407 244.274 1387.1 265 1387.1 287V301V400.304C1387.1 426.647 1364.81 446.911 1338.46 446.911H1229.04C1201.67 446.911 1181.84 465.778 1180.48 490.769Z"/>
</mask>
<path d="M971.853 847.457L970.853 847.451V847.457H971.853ZM973.717 519.336L974.717 519.341V519.336H973.717ZM1385.07 195.641L1384.07 195.635V195.641H1385.07ZM1431.68 244.274L1431.68 243.274L1431.68 243.274L1431.68 244.274ZM1386.98 -141.114L1387.98 -141.108L1386.98 -141.114ZM1387.18 852.231L1386.19 852.177L1387.18 852.231ZM1180.48 490.769L1179.48 490.715L1180.48 490.769ZM1847.08 648.548C1821.29 648.548 1801.48 628.732 1801.48 602.941H1799.48C1799.48 629.836 1820.19 650.548 1847.08 650.548V648.548ZM1987.17 648.548H1847.08V650.548H1987.17V648.548ZM2006.17 466.911V629.548H2008.17V466.911H2006.17ZM1847.08 447.911H1987.17V445.911H1847.08V447.911ZM1799.48 400.304C1799.48 427.199 1820.19 447.911 1847.08 447.911V445.911C1821.29 445.911 1801.48 426.095 1801.48 400.304H1799.48ZM1799.48 290.88V400.304H1801.48V290.88H1799.48ZM1847.08 243.274C1820.19 243.274 1799.48 263.985 1799.48 290.88H1801.48C1801.48 265.09 1821.29 245.274 1847.08 245.274V243.274ZM1987.17 243.274H1847.08V245.274H1987.17V243.274ZM2006.17 61.637V224.274H2008.17V61.637H2006.17ZM1847.08 42.637H1987.17V40.637H1847.08V42.637ZM1801.48 88.2434C1801.48 62.4529 1821.29 42.637 1847.08 42.637V40.637C1820.19 40.637 1799.48 61.3483 1799.48 88.2434H1801.48ZM1801.48 197.667V88.2434H1799.48V197.667H1801.48ZM1751.84 245.274C1780.74 245.274 1801.48 224.59 1801.48 197.667H1799.48C1799.48 223.43 1779.69 243.274 1751.84 243.274V245.274ZM1642.42 245.274H1751.84V243.274H1642.42V245.274ZM1594.79 290.88C1594.79 265.144 1616.57 245.274 1642.42 245.274V243.274C1615.58 243.274 1592.79 263.931 1592.79 290.88H1594.79ZM1594.79 400.304V290.88H1592.79V400.304H1594.79ZM1547.18 447.911C1574.07 447.911 1594.79 427.199 1594.79 400.304H1592.79C1592.79 426.095 1572.97 445.911 1547.18 445.911V447.911ZM1433.7 447.911H1547.18V445.911H1433.7V447.911ZM1388.1 493.517C1388.1 467.727 1407.91 447.911 1433.7 447.911V445.911C1406.81 445.911 1386.1 466.622 1386.1 493.517H1388.1ZM1388.1 852.141V493.517H1386.1V852.141H1388.1ZM1338.63 897.089C1366.5 897.089 1386.8 877.836 1388.18 852.285L1386.19 852.177C1384.86 876.608 1365.5 895.089 1338.63 895.089V897.089ZM1229.2 897.089H1338.63V895.089H1229.2V897.089ZM1181.57 942.696C1181.57 916.96 1203.35 897.089 1229.2 897.089V895.089C1202.36 895.089 1179.57 915.746 1179.57 942.696H1181.57ZM1181.57 1052.12V942.696H1179.57V1052.12H1181.57ZM1133.96 1099.73C1160.86 1099.73 1181.57 1079.01 1181.57 1052.12H1179.57C1179.57 1077.91 1159.75 1097.73 1133.96 1097.73V1099.73ZM1020.49 1099.73H1133.96V1097.73H1020.49V1099.73ZM974.879 1145.33C974.879 1119.54 994.695 1099.73 1020.49 1099.73V1097.73C993.591 1097.73 972.879 1118.44 972.879 1145.33H974.879ZM974.879 1484V1145.33H972.879V1484H974.879ZM1160.57 1503H993.879V1505H1160.57V1503ZM1179.57 1145.33V1484H1181.57V1145.33H1179.57ZM1227.18 1097.73C1200.28 1097.73 1179.57 1118.44 1179.57 1145.33H1181.57C1181.57 1119.54 1201.38 1099.73 1227.18 1099.73V1097.73ZM1229.2 1097.73H1227.18V1099.73H1229.2V1097.73ZM1338.63 1097.73H1229.2V1099.73H1338.63V1097.73ZM1388.26 1145.33C1388.26 1118.41 1367.52 1097.73 1338.63 1097.73V1099.73C1366.47 1099.73 1386.26 1119.57 1386.26 1145.33H1388.26ZM1388.26 1254.76V1145.33H1386.26V1254.76H1388.26ZM1433.86 1300.36C1408.07 1300.36 1388.26 1280.55 1388.26 1254.76H1386.26C1386.26 1281.65 1406.97 1302.36 1433.86 1302.36V1300.36ZM1573.95 1300.36H1433.86V1302.36H1573.95V1300.36ZM1592.95 1118.73V1281.36H1594.95V1118.73H1592.95ZM1433.86 1099.73H1573.95V1097.73H1433.86V1099.73ZM1386.26 1052.12C1386.26 1079.01 1406.97 1099.73 1433.86 1099.73V1097.73C1408.07 1097.73 1388.26 1077.91 1388.26 1052.12H1386.26ZM1386.26 942.696V1052.12H1388.26V942.696H1386.26ZM1433.86 895.089C1406.97 895.089 1386.26 915.801 1386.26 942.696H1388.26C1388.26 916.905 1408.07 897.089 1433.86 897.089V895.089ZM1573.95 895.089H1433.86V897.089H1573.95V895.089ZM1592.95 693.534V876.089H1594.95V693.534H1592.95ZM1592.79 493.517V693.371H1594.79V493.517H1592.79ZM1640.39 445.911C1613.5 445.911 1592.79 466.622 1592.79 493.517H1594.79C1594.79 467.727 1614.6 447.911 1640.39 447.911V445.911ZM1642.42 445.911H1640.39V447.911H1642.42V445.911ZM1751.84 445.911H1642.42V447.911H1751.84V445.911ZM1801.48 493.517C1801.48 466.594 1780.74 445.911 1751.84 445.911V447.911C1779.69 447.911 1799.48 467.755 1799.48 493.517H1801.48ZM1801.48 602.941V493.517H1799.48V602.941H1801.48ZM1179.57 490.859V849.483H1181.57V490.859H1179.57ZM1179.57 849.483C1179.57 875.273 1159.75 895.089 1133.96 895.089V897.089C1160.86 897.089 1181.57 876.378 1181.57 849.483H1179.57ZM1133.96 895.089H1034.5V897.089H1133.96V895.089ZM1034.5 895.089H1018V897.089H1034.5V895.089ZM1018 895.089C990.439 895.089 972.879 916.957 972.879 936.5H974.879C974.879 918.043 991.561 897.089 1018 897.089V895.089ZM972.879 936.5V957H974.879V936.5H972.879ZM972.879 957V1052.12H974.879V957H972.879ZM972.879 1052.12C972.879 1077.86 951.093 1097.73 925.246 1097.73V1099.73C952.085 1099.73 974.879 1079.07 974.879 1052.12H972.879ZM925.246 1097.73H815.822V1099.73H925.246V1097.73ZM815.822 1097.73C786.929 1097.73 766.19 1118.41 766.19 1145.33H768.19C768.19 1119.57 787.977 1099.73 815.822 1099.73V1097.73ZM766.19 1145.33V1254.76H768.19V1145.33H766.19ZM766.19 1254.76C766.19 1280.55 746.374 1300.36 720.583 1300.36V1302.36C747.478 1302.36 768.19 1281.65 768.19 1254.76H766.19ZM720.583 1300.36H580.5V1302.36H720.583V1300.36ZM561.5 1281.36V1118.73H559.5V1281.36H561.5ZM580.5 1099.73H720.583V1097.73H580.5V1099.73ZM720.583 1099.73C747.478 1099.73 768.19 1079.01 768.19 1052.12H766.19C766.19 1077.91 746.374 1097.73 720.583 1097.73V1099.73ZM768.19 1052.12V942.696H766.19V1052.12H768.19ZM768.19 942.696C768.19 915.801 747.478 895.089 720.583 895.089V897.089C746.374 897.089 766.19 916.905 766.19 942.696H768.19ZM720.583 895.089H580.5V897.089H720.583V895.089ZM561.5 876.089V713.452H559.5V876.089H561.5ZM580.5 694.452H720.583V692.452H580.5V694.452ZM720.583 694.452C746.374 694.452 766.19 714.268 766.19 740.059H768.19C768.19 713.164 747.478 692.452 720.583 692.452V694.452ZM766.19 740.059V849.483H768.19V740.059H766.19ZM766.19 849.483C766.19 876.406 786.929 897.089 815.822 897.089V895.089C787.977 895.089 768.19 875.245 768.19 849.483H766.19ZM815.822 897.089H925.246V895.089H815.822V897.089ZM925.246 897.089C952.142 897.089 972.853 876.378 972.853 849.483H970.853C970.853 875.273 951.037 895.089 925.246 895.089V897.089ZM972.853 849.483V847.457H970.853V849.483H972.853ZM972.853 847.462L974.717 519.341L972.717 519.33L970.853 847.451L972.853 847.462ZM974.717 519.336V466.911H972.717V519.336H974.717ZM993.717 447.911H1133.8V445.911H993.717V447.911ZM1133.8 447.911C1160.7 447.911 1181.41 427.199 1181.41 400.304H1179.41C1179.41 426.095 1159.59 445.911 1133.8 445.911V447.911ZM1181.41 400.304V290.88H1179.41V400.304H1181.41ZM1181.41 290.88C1181.41 263.985 1160.7 243.274 1133.8 243.274V245.274C1159.59 245.274 1179.41 265.09 1179.41 290.88H1181.41ZM1133.8 243.274H993.717V245.274H1133.8V243.274ZM974.717 224.274V61.637H972.717V224.274H974.717ZM993.717 42.637H1133.8V40.637H993.717V42.637ZM1133.8 42.637C1159.59 42.637 1179.41 62.4529 1179.41 88.2434H1181.41C1181.41 61.3483 1160.7 40.637 1133.8 40.637V42.637ZM1179.41 88.2434V197.667H1181.41V88.2434H1179.41ZM1179.41 197.667C1179.41 224.59 1200.15 245.274 1229.04 245.274V243.274C1201.19 243.274 1181.41 223.43 1181.41 197.667H1179.41ZM1229.04 245.274H1338.46V243.274H1229.04V245.274ZM1338.46 245.274C1365.36 245.274 1386.07 224.562 1386.07 197.667H1384.07C1384.07 223.458 1364.25 243.274 1338.46 243.274V245.274ZM1386.07 197.667V195.641H1384.07V197.667H1386.07ZM1386.07 195.647L1387.98 -141.108L1385.98 -141.119L1384.07 195.635L1386.07 195.647ZM1406.98 -160H1573.79V-162H1406.98V-160ZM1592.79 -141V197.667H1594.79V-141H1592.79ZM1592.79 197.667C1592.79 223.458 1572.97 243.274 1547.18 243.274V245.274C1574.07 245.274 1594.79 224.562 1594.79 197.667H1592.79ZM1547.18 243.274H1433.7V245.274H1547.18V243.274ZM1433.7 243.274H1431.68V245.274H1433.7V243.274ZM1431.68 243.274C1406.46 243.274 1386.1 264.433 1386.1 287H1388.1C1388.1 265.567 1407.54 245.274 1431.68 245.274L1431.68 243.274ZM1386.1 287V301H1388.1V287H1386.1ZM1386.1 301V400.304H1388.1V301H1386.1ZM1386.1 400.304C1386.1 426.04 1364.31 445.911 1338.46 445.911V447.911C1365.3 447.911 1388.1 427.254 1388.1 400.304H1386.1ZM1338.46 445.911H1229.04V447.911H1338.46V445.911ZM1229.04 445.911C1201.16 445.911 1180.87 465.164 1179.48 490.715L1181.48 490.823C1182.81 466.392 1202.17 447.911 1229.04 447.911V445.911ZM974.717 61.637C974.717 51.1436 983.224 42.637 993.717 42.637V40.637C982.119 40.637 972.717 50.039 972.717 61.637H974.717ZM993.717 243.274C983.224 243.274 974.717 234.767 974.717 224.274H972.717C972.717 235.872 982.119 245.274 993.717 245.274V243.274ZM974.717 466.911C974.717 456.417 983.224 447.911 993.717 447.911V445.911C982.119 445.911 972.717 455.313 972.717 466.911H974.717ZM1987.17 650.548C1998.76 650.548 2008.17 641.146 2008.17 629.548H2006.17C2006.17 640.041 1997.66 648.548 1987.17 648.548V650.548ZM1387.98 -141.108C1388.04 -151.559 1396.53 -160 1406.98 -160V-162C1395.43 -162 1386.05 -152.671 1385.98 -141.119L1387.98 -141.108ZM561.5 713.452C561.5 702.959 570.007 694.452 580.5 694.452V692.452C568.902 692.452 559.5 701.854 559.5 713.452H561.5ZM1593.87 692.452C1594.37 692.452 1594.79 692.864 1594.79 693.371H1592.79C1592.79 693.968 1593.27 694.452 1593.87 694.452V692.452ZM1594.95 693.534C1594.95 692.936 1594.46 692.452 1593.87 692.452V694.452C1593.36 694.452 1592.95 694.041 1592.95 693.534H1594.95ZM1386.1 852.141C1386.1 852.717 1386.56 853.185 1387.14 853.185V851.185C1387.67 851.185 1388.1 851.613 1388.1 852.141H1386.1ZM561.5 1118.73C561.5 1108.23 570.007 1099.73 580.5 1099.73V1097.73C568.902 1097.73 559.5 1107.13 559.5 1118.73H561.5ZM1387.14 853.185C1386.58 853.185 1386.16 852.716 1386.19 852.177L1388.18 852.285C1388.21 851.696 1387.75 851.185 1387.14 851.185V853.185ZM1573.95 897.089C1585.55 897.089 1594.95 887.687 1594.95 876.089H1592.95C1592.95 886.583 1584.44 895.089 1573.95 895.089V897.089ZM1594.95 1118.73C1594.95 1107.13 1585.55 1097.73 1573.95 1097.73V1099.73C1584.44 1099.73 1592.95 1108.23 1592.95 1118.73H1594.95ZM1573.95 1302.36C1585.55 1302.36 1594.95 1292.96 1594.95 1281.36H1592.95C1592.95 1291.86 1584.44 1300.36 1573.95 1300.36V1302.36ZM1180.52 489.815C1181.08 489.815 1181.51 490.284 1181.48 490.823L1179.48 490.715C1179.45 491.304 1179.92 491.815 1180.52 491.815V489.815ZM972.879 1484C972.879 1495.6 982.281 1505 993.879 1505V1503C983.386 1503 974.879 1494.49 974.879 1484H972.879ZM580.5 1300.36C570.007 1300.36 561.5 1291.86 561.5 1281.36H559.5C559.5 1292.96 568.902 1302.36 580.5 1302.36V1300.36ZM2008.17 61.637C2008.17 50.039 1998.76 40.637 1987.17 40.637V42.637C1997.66 42.637 2006.17 51.1436 2006.17 61.637H2008.17ZM1180.52 491.815C1180 491.815 1179.57 491.387 1179.57 490.859H1181.57C1181.57 490.283 1181.1 489.815 1180.52 489.815V491.815ZM1160.57 1505C1172.17 1505 1181.57 1495.6 1181.57 1484H1179.57C1179.57 1494.49 1171.06 1503 1160.57 1503V1505ZM1987.17 245.274C1998.76 245.274 2008.17 235.872 2008.17 224.274H2006.17C2006.17 234.767 1997.66 243.274 1987.17 243.274V245.274ZM580.5 895.089C570.007 895.089 561.5 886.583 561.5 876.089H559.5C559.5 887.687 568.902 897.089 580.5 897.089V895.089ZM1573.79 -160C1584.28 -160 1592.79 -151.493 1592.79 -141H1594.79C1594.79 -152.598 1585.38 -162 1573.79 -162V-160ZM2008.17 466.911C2008.17 455.313 1998.76 445.911 1987.17 445.911V447.911C1997.66 447.911 2006.17 456.417 2006.17 466.911H2008.17Z" fill="#08060F" mask="url(#path-1-outside-1_290_39)"/>
</g>
<defs>
<clipPath id="clip0_290_39">
<rect width="1920" height="1526" fill="white"/>
</clipPath>
</defs>
</svg>
