<svg width="1573" height="1281" viewBox="0 0 1573 1281" fill="none" xmlns="http://www.w3.org/2000/svg">
<g clip-path="url(#clip0_23_43)">
<path d="M1024 1280L2 111L1572 491.5L1024 1280Z" fill="url(#paint0_linear_23_43)" stroke="white" stroke-opacity="0.1"/>
<path d="M1497 1L2 111L1572 491.5L1497 1Z" fill="url(#paint1_linear_23_43)" stroke="white" stroke-opacity="0.1"/>
<g filter="url(#filter0_i_23_43)">
<path d="M346.718 481.048L85.0962 181.712L312.179 234.116L346.718 481.048ZM416.889 548.985L391.775 307.409L679.195 647.05L416.889 548.985ZM734.851 634.729L434.348 267.588L775.597 352.052L734.851 634.729ZM703.593 889.106L475.685 628.751L721.748 724.935L703.593 889.106ZM763.641 947.228L795.222 787.376L1033.44 1071.21L763.641 947.228ZM1209.34 917.185L1103.07 1079.48L856.741 778.369L1209.34 917.185ZM1067.85 1141.21L1004.95 1232.96L816.274 1017.64L1067.85 1141.21ZM1187.32 848.182L811.591 704.295L863.254 416.947L1187.32 848.182ZM1461.67 525.059L1263.82 836.983L922.934 387.812L1461.67 525.059ZM1461.7 525.017L1461.69 525.022C1461.7 525.018 1461.7 525.015 1461.7 525.015L1461.7 525.017Z" stroke="white" stroke-opacity="0.1" stroke-width="32"/>
</g>
<g filter="url(#filter1_i_23_43)">
<path d="M337.991 161.92L161.626 117.195C161.034 117.045 160.748 116.867 160.637 116.788C160.524 116.707 160.454 116.63 160.396 116.539C160.257 116.325 160.06 115.818 160.125 115.081C160.19 114.344 160.472 113.88 160.646 113.693C160.72 113.614 160.801 113.55 160.927 113.49C161.05 113.431 161.362 113.306 161.971 113.262L465.535 91.0573C466.083 91.0172 466.391 91.0848 466.527 91.1247C466.667 91.166 466.769 91.2208 466.864 91.2928C467.081 91.4567 467.417 91.8478 467.604 92.5018C467.791 93.1558 467.713 93.6653 467.616 93.9189C467.573 94.0303 467.515 94.1308 467.418 94.2402C467.324 94.3458 467.099 94.5659 466.612 94.8219L339.414 161.752C338.976 161.982 338.47 162.042 337.991 161.92ZM955.776 107.582L769.229 72.4569C768.583 72.3354 768.274 72.1636 768.164 72.0938C768.051 72.0218 767.986 71.9546 767.928 71.8742C767.788 71.6769 767.558 71.1625 767.602 70.3784C767.646 69.5944 767.933 69.1093 768.095 68.9291C768.161 68.8556 768.233 68.7962 768.354 68.7375C768.471 68.6805 768.798 68.5447 769.453 68.4968L1003.23 51.3769C1003.88 51.3289 1004.2 51.4755 1004.39 51.5902C1004.65 51.7473 1004.95 52.0442 1005.17 52.4937C1005.39 52.9432 1005.44 53.3641 1005.4 53.664C1005.38 53.883 1005.3 54.2248 1004.86 54.7127L1015.24 64.1009L1004.86 54.7128L957.629 106.958C957.162 107.474 956.46 107.711 955.776 107.582ZM1278.11 31.1999L1458.33 18.1364C1459.44 18.0557 1460.41 18.9009 1460.47 20.0144L1462.87 61.0711C1462.94 62.3419 1461.83 63.3576 1460.57 63.1648L1277.95 35.1716C1277.27 35.0679 1276.95 34.9 1276.84 34.835C1276.73 34.7681 1276.67 34.7066 1276.61 34.6322C1276.47 34.4449 1276.22 33.9264 1276.25 33.1149C1276.28 32.3033 1276.57 31.8064 1276.73 31.6309C1276.79 31.5612 1276.86 31.5048 1276.98 31.4472C1277.09 31.3911 1277.42 31.2493 1278.11 31.1999ZM1065.46 102.834L1107.13 50.5257C1107.58 49.9617 1108.3 49.6832 1109.01 49.7969L1312.63 82.3048C1313.29 82.4108 1313.61 82.5779 1313.72 82.644C1313.84 82.7121 1313.9 82.7755 1313.96 82.8519C1314.1 83.0423 1314.34 83.5572 1314.31 84.3575C1314.28 85.1578 1314 85.6521 1313.84 85.8309C1313.78 85.9027 1313.71 85.9609 1313.59 86.0199C1313.48 86.0773 1313.15 86.2192 1312.48 86.2733L1067.19 106.074C1066.57 106.124 1066.25 105.991 1066.05 105.875C1065.79 105.724 1065.49 105.442 1065.26 105.02C1065.04 104.598 1064.97 104.192 1064.99 103.89C1065.01 103.66 1065.08 103.32 1065.46 102.834ZM1465.23 107.079L1471.57 195.103C1471.66 196.399 1470.51 197.439 1469.23 197.217L1155.86 142.994C1155.23 142.885 1154.93 142.722 1154.81 142.653C1154.7 142.582 1154.63 142.514 1154.57 142.432C1154.42 142.234 1154.18 141.731 1154.21 140.962C1154.23 140.193 1154.5 139.705 1154.66 139.517C1154.72 139.439 1154.8 139.375 1154.92 139.311C1155.03 139.249 1155.35 139.106 1155.99 139.036L1463.02 105.234C1464.14 105.11 1465.15 105.947 1465.23 107.079ZM1480.75 255.014L1493.49 434.247C1493.58 435.594 1492.35 436.647 1491.03 436.335L1007.18 321.23C1006.62 321.097 1006.34 320.932 1006.23 320.854C1006.11 320.773 1006.03 320.693 1005.97 320.599C1005.82 320.381 1005.61 319.893 1005.65 319.187C1005.68 318.48 1005.93 318.014 1006.1 317.812C1006.18 317.725 1006.26 317.653 1006.39 317.584C1006.51 317.518 1006.8 317.381 1007.38 317.303L1478.48 253.174C1479.63 253.018 1480.66 253.861 1480.75 255.014ZM934.646 270.9L1019.59 162.684C1020.05 162.104 1020.79 161.821 1021.51 161.949L1340.62 218.088C1341.24 218.197 1341.54 218.356 1341.65 218.426C1341.77 218.498 1341.84 218.569 1341.91 218.653C1342.06 218.854 1342.29 219.351 1342.28 220.104C1342.26 220.858 1342 221.343 1341.84 221.537C1341.77 221.618 1341.7 221.685 1341.58 221.752C1341.46 221.816 1341.15 221.962 1340.53 222.042L936.475 274.119C935.832 274.202 935.506 274.076 935.308 273.971C935.041 273.829 934.725 273.553 934.48 273.123C934.236 272.693 934.161 272.28 934.176 271.978C934.187 271.755 934.246 271.41 934.646 270.9ZM904.985 167.222L806.616 276.396C806.115 276.951 805.347 277.181 804.624 276.992L513.989 200.98C513.411 200.829 513.13 200.653 513.019 200.573C512.904 200.49 512.833 200.411 512.773 200.318C512.632 200.1 512.44 199.598 512.502 198.874C512.564 198.151 512.839 197.689 513.014 197.499C513.089 197.417 513.173 197.351 513.3 197.289C513.423 197.229 513.73 197.103 514.325 197.052L903.329 163.89C903.991 163.834 904.312 163.979 904.5 164.091C904.759 164.245 905.065 164.541 905.29 164.993C905.514 165.445 905.565 165.868 905.532 166.168C905.508 166.385 905.43 166.728 904.985 167.222ZM482.019 153.958L598.31 88.5445C598.719 88.3149 599.194 88.2359 599.655 88.321L818.333 128.77C818.98 128.89 819.29 129.061 819.4 129.13C819.513 129.202 819.578 129.269 819.636 129.349C819.777 129.545 820.008 130.06 819.966 130.845C819.923 131.631 819.637 132.117 819.476 132.297C819.41 132.37 819.338 132.43 819.217 132.489C819.1 132.546 818.774 132.682 818.117 132.731L483.148 157.696C482.617 157.735 482.315 157.671 482.178 157.632C482.035 157.591 481.93 157.535 481.832 157.462C481.611 157.298 481.277 156.915 481.085 156.28C480.893 155.644 480.959 155.141 481.052 154.882C481.094 154.767 481.151 154.662 481.246 154.549C481.339 154.44 481.555 154.22 482.019 153.958Z" stroke="white" stroke-opacity="0.1" stroke-width="28"/>
</g>
</g>
<defs>
<filter id="filter0_i_23_43" x="69.0312" y="165.679" width="1409.65" height="1086.28" filterUnits="userSpaceOnUse" color-interpolation-filters="sRGB">
<feFlood flood-opacity="0" result="BackgroundImageFix"/>
<feBlend mode="normal" in="SourceGraphic" in2="BackgroundImageFix" result="shape"/>
<feColorMatrix in="SourceAlpha" type="matrix" values="0 0 0 0 0 0 0 0 0 0 0 0 0 0 0 0 0 0 127 0" result="hardAlpha"/>
<feOffset dx="1" dy="3"/>
<feGaussianBlur stdDeviation="2.35"/>
<feComposite in2="hardAlpha" operator="arithmetic" k2="-1" k3="1"/>
<feColorMatrix type="matrix" values="0 0 0 0 1 0 0 0 0 1 0 0 0 0 1 0 0 0 0.12 0"/>
<feBlend mode="normal" in2="shape" result="effect1_innerShadow_23_43"/>
</filter>
<filter id="filter1_i_23_43" x="146.113" y="0.130371" width="1361.38" height="450.268" filterUnits="userSpaceOnUse" color-interpolation-filters="sRGB">
<feFlood flood-opacity="0" result="BackgroundImageFix"/>
<feBlend mode="normal" in="SourceGraphic" in2="BackgroundImageFix" result="shape"/>
<feColorMatrix in="SourceAlpha" type="matrix" values="0 0 0 0 0 0 0 0 0 0 0 0 0 0 0 0 0 0 127 0" result="hardAlpha"/>
<feOffset dy="-4"/>
<feGaussianBlur stdDeviation="2"/>
<feComposite in2="hardAlpha" operator="arithmetic" k2="-1" k3="1"/>
<feColorMatrix type="matrix" values="0 0 0 0 1 0 0 0 0 1 0 0 0 0 1 0 0 0 0.04 0"/>
<feBlend mode="normal" in2="shape" result="effect1_innerShadow_23_43"/>
</filter>
<linearGradient id="paint0_linear_23_43" x1="1327.5" y1="429.5" x2="1027" y2="1280" gradientUnits="userSpaceOnUse">
<stop stop-color="white" stop-opacity="0.12"/>
<stop offset="1" stop-color="white" stop-opacity="0"/>
</linearGradient>
<linearGradient id="paint1_linear_23_43" x1="2" y1="246.25" x2="1572" y2="246.25" gradientUnits="userSpaceOnUse">
<stop stop-color="white" stop-opacity="0.6"/>
<stop offset="1" stop-color="white" stop-opacity="0"/>
</linearGradient>
<clipPath id="clip0_23_43">
<rect width="1573" height="1281" fill="white"/>
</clipPath>
</defs>
</svg>
